<svg width="69" height="69" viewBox="0 0 69 69" fill="none" xmlns="http://www.w3.org/2000/svg">
<path d="M34.5 69C53.5541 69 69 53.5541 69 34.5C69 15.4459 53.5541 0 34.5 0C15.4459 0 0 15.4459 0 34.5C0 53.5541 15.4459 69 34.5 69Z" fill="#D6001C"/>
<path d="M19.6219 18.9304V30.6662C21.4087 28.5358 23.5506 27.4634 26.0346 27.4634C27.314 27.4634 28.4597 27.7078 29.4875 28.1922C30.5182 28.6738 31.2887 29.2919 31.809 30.0423C32.3323 30.7999 32.6859 31.6293 32.8771 32.5435C33.0668 33.4535 33.1617 34.8694 33.1617 36.7899V49.3379H27.6101V38.0362C27.6101 35.7937 27.5095 34.3735 27.2982 33.7697C27.1002 33.1783 26.7074 32.6715 26.1841 32.3322C25.6493 31.9714 24.9838 31.7932 24.1802 31.7932C23.2602 31.7932 22.4351 32.0232 21.7178 32.4803C20.9847 32.9403 20.4585 33.6274 20.125 34.546C19.7858 35.466 19.6162 36.8244 19.6219 38.6227L19.6162 49.3379H14.0717V18.9304H19.6233H19.6219ZM41.482 18.9304V30.6662C43.2702 28.5358 45.4107 27.4634 47.8932 27.4634C49.1683 27.4634 50.3226 27.7078 51.3518 28.1922C52.3782 28.6738 53.1487 29.2919 53.6662 30.0423C54.1885 30.7948 54.5519 31.6459 54.7343 32.5435C54.9255 33.4535 55.0203 34.8694 55.0203 36.7899V49.3379H49.4745V38.0362C49.4745 35.7937 49.3695 34.3735 49.1582 33.7697C48.9602 33.1775 48.5662 32.6704 48.0413 32.3322C47.5123 31.9714 46.841 31.7932 46.0374 31.7932C45.1188 31.7932 44.2937 32.0232 43.575 32.4803C42.8519 32.9403 42.3229 33.6274 41.9851 34.546C41.6516 35.466 41.482 36.8244 41.482 38.6227V49.3379H35.9375V18.9304H41.482Z" fill="#FEFEFE"/>
</svg>
